<svg xmlns="http://www.w3.org/2000/svg" viewBox="0 0 230.67 272.34">
    <defs>
        <style>
            .cls-1 {
                fill: none;
                stroke: #000;
                stroke-linecap: round;
                stroke-linejoin: round;
                stroke-width: 0.5px;
            }
        </style>
    </defs>
    <g id="Layer_2" data-name="Layer 2">
        <g id="Layer_1-2" data-name="Layer 1">
            <path
                d="M0,73.66c0-7.57,5-12.43,12.1-12.43,6.1,0,10.56,3.8,10.56,9.36,0,.07,0,.4,0,.88H19.81v-.66c0-4.06-3.33-6.8-7.71-6.8-5.23,0-9,3.76-9,9.65s4,9.57,9,9.57c4.42,0,7.82-2.67,7.82-6.5v-.44h2.85v.58c0,5.41-4.53,9.14-10.67,9.14C5.12,86,0,81.19,0,73.66Z" />
            <path
                d="M26.6,80.45c0-2.55,1.8-4.75,6.62-4.75h7.34V74.39c0-3.11-1.82-4.61-5.51-4.61-3.33,0-5.16,1.25-5.16,3.7a4.76,4.76,0,0,0,0,.65h-2.7A8.83,8.83,0,0,1,27.15,73c0-3.59,3.07-5.74,8-5.74,5.3,0,8.37,2.63,8.37,7.34v11H40.56c0-.84.11-2.52.15-4.27h0c-.62,2.78-2.88,4.57-7.38,4.57C29.2,85.94,26.6,83.85,26.6,80.45Zm14-2.37v-.26H33.48c-3,0-4.13.88-4.13,2.63s1.68,3,4.53,3C38,83.45,40.56,81.37,40.56,78.08Z" />
            <path
                d="M48.42,67.59h2.93l-.08,5.23h0c.84-3.15,2.7-5.52,6.58-5.52,4,0,6.21,2.7,6.21,7,0,1.24-.11,2.56-.18,3.22H61.25A21.17,21.17,0,0,0,61.4,75c0-3.32-1.25-5-4.21-5-3.69,0-5.84,3.22-5.84,7.71v8H48.42Z" />
            <path
                d="M68.67,60.32h2.92v8.37c0,1-.07,3.14-.07,3.8h0c1-3.14,3.5-5.19,7.82-5.19,4.75,0,7.56,2.74,7.56,7V85.64H84V75c0-3.07-1.76-5-5.63-5-4.13,0-6.8,2.63-6.8,7.2v8.51H68.67Z" />
            <path
                d="M91.69,78.74V67.59h2.93V78.23c0,3.1,2,5.08,5.48,5.08,4.2,0,6.9-2.82,6.9-7.57V67.59h2.93v18H107c.08-1.2.15-3.47.15-5.29h0c-.76,3.39-3.32,5.59-7.82,5.59C94.58,85.94,91.69,83.12,91.69,78.74Z" />
            <path
                d="M114.31,80.45c0-2.55,1.79-4.75,6.62-4.75h7.34V74.39c0-3.11-1.82-4.61-5.52-4.61-3.32,0-5.15,1.25-5.15,3.7a4.76,4.76,0,0,0,0,.65h-2.71c0-.25-.07-.77-.07-1.09,0-3.59,3.07-5.74,8-5.74,5.3,0,8.37,2.63,8.37,7.34v11h-2.93c0-.84.11-2.52.15-4.27h0c-.62,2.78-2.88,4.57-7.38,4.57C116.91,85.94,114.31,83.85,114.31,80.45Zm14-2.37v-.26h-7.09c-3,0-4.13.88-4.13,2.63s1.69,3,4.54,3C125.68,83.45,128.27,81.37,128.27,78.08Z" />
            <path
                d="M136.31,67.59h2.93l-.08,4.64h0c.73-3,3.29-4.93,7.2-4.93,5.26,0,8.48,3.51,8.48,9,0,5.84-3.25,9.61-8.55,9.61-3.84,0-6.4-1.83-7.17-4.28h0c0,1.21.11,3.11.11,4v7.27h-2.93ZM152,76.36c0-3.91-2.3-6.43-6.1-6.43s-6.54,2.59-6.61,6.65v1.1c0,3.43,2.59,5.63,6.68,5.63C149.62,83.31,152,80.6,152,76.36Z" />
            <path
                d="M158.53,76.65c0-5.7,3.55-9.35,9.14-9.35s9.14,3.65,9.14,9.35-3.55,9.29-9.14,9.29S158.53,82.32,158.53,76.65Zm15.35,0c0-4.09-2.41-6.72-6.21-6.72s-6.21,2.63-6.21,6.72,2.41,6.66,6.21,6.66S173.88,80.71,173.88,76.65Z" />
            <path
                d="M181.19,67.59h2.92L184,72.38h0a6.25,6.25,0,0,1,6.32-5.08c3.55,0,5.88,1.86,6.32,4.75h0c.62-2.89,3-4.75,6.36-4.75,4.09,0,6.47,2.7,6.47,6.91V85.64h-2.93V74.83c0-3-1.46-4.9-4.35-4.9-3.32,0-5.44,2.45-5.44,6.61v9.1H194V74.72c0-2.93-1.5-4.79-4.39-4.79-3.33,0-5.45,2.49-5.45,6.76v9h-2.92Z" />
            <path
                d="M213.79,80.45c0-2.55,1.79-4.75,6.61-4.75h7.35V74.39c0-3.11-1.83-4.61-5.52-4.61-3.32,0-5.15,1.25-5.15,3.7a6.34,6.34,0,0,0,0,.65h-2.7a8.94,8.94,0,0,1-.07-1.09c0-3.59,3.07-5.74,8-5.74,5.3,0,8.37,2.63,8.37,7.34v11h-2.92c0-.84.11-2.52.15-4.27h0c-.62,2.78-2.89,4.57-7.38,4.57C216.38,85.94,213.79,83.85,213.79,80.45Zm14-2.37v-.26h-7.09c-3,0-4.13.88-4.13,2.63s1.68,3,4.53,3C225.15,83.45,227.75,81.37,227.75,78.08Z" />
            <path
                d="M116.14,97.94h8.77c7.42,0,12,4.53,12,12S132.62,122,125.68,122h-9.54Zm9.47,21.27c5.11,0,8.22-3.44,8.22-9.29s-3.36-9.21-8.84-9.21h-5.78v18.5Z" />
            <path
                d="M157.62,113.54H143.48c.18,3.84,2.52,6.25,6.06,6.25,3,0,5.12-1.53,5.38-3.91h2.7c-.18,3.91-3.36,6.39-8.11,6.39-5.45,0-9-3.58-9-9.17,0-5.77,3.47-9.46,8.88-9.46,5.16,0,8.19,3.18,8.19,8.55Zm-2.7-2.34c0-3.18-2-5.08-5.41-5.08-3.22,0-5.38,1.87-5.92,5.3h11.33Z" />
            <path
                d="M161.27,116H164c0,2.41,1.46,3.84,5.22,3.84s5.52-1.13,5.52-3.07a1.87,1.87,0,0,0-1.13-1.86,19.5,19.5,0,0,0-5-.84c-3-.26-4.75-.63-5.85-1.43a4.2,4.2,0,0,1-1.5-3.36c0-3.4,3.11-5.59,7.93-5.59,5.41,0,7.68,2.37,7.68,6.43h-2.71c0-2.71-1.64-3.95-4.86-3.95s-5.11,1.14-5.11,2.93a1.92,1.92,0,0,0,1.17,2,22.71,22.71,0,0,0,5,.84c2.81.3,4.2.55,5.45,1.25a3.9,3.9,0,0,1,1.79,3.43c0,3.55-2.93,5.66-8.41,5.66C163.17,122.27,161.27,119.42,161.27,116Z" />
            <path d="M182.1,97.94h3.15v3.69H182.1Zm.11,6h2.93v18h-2.93Z" />
            <path
                d="M208.31,123.85c0,3.58-3.4,5.88-9.1,5.88-6,0-9.5-1.94-9.5-5.37a3.38,3.38,0,0,1,3.69-3.29v0a3.66,3.66,0,0,1-1.47-3,3.25,3.25,0,0,1,1.28-2.82v-.07a5.84,5.84,0,0,1-2.63-5.08c0-3.91,3-6.43,7.68-6.43a9.26,9.26,0,0,1,4.93,1.24v0a3.24,3.24,0,0,1-.69-2c0-1.46,1.28-2.41,3.32-2.41a5.36,5.36,0,0,1,1.65.22V103a3.39,3.39,0,0,0-1.28-.22c-1.21,0-1.87.55-1.87,1.61a5.73,5.73,0,0,0,.48,2,6,6,0,0,1,1.17,3.73c0,3.91-3,6.43-7.71,6.43a10.4,10.4,0,0,1-3.33-.51,2.2,2.2,0,0,0-.51,1.53c0,1.21.77,2,2.3,2h5.85C206.22,119.5,208.31,121.11,208.31,123.85Zm-2.93.29c0-1.43-1.06-2.16-3.25-2.16h-5.37c-2.52,0-4.13.66-4.13,2.31,0,2,2.56,3,6.54,3C203.81,127.25,205.38,125.86,205.38,124.14Zm-11.95-14.07c0,2.41,1.87,4,4.83,4s4.86-1.54,4.86-4-1.9-3.95-4.86-3.95S193.43,107.66,193.43,110.07Z" />
            <path
                d="M212.4,103.93h2.92l-.07,4.86h0c1-3.14,3.51-5.15,7.82-5.15,4.75,0,7.56,2.74,7.56,7V122h-2.92V111.31c0-3.07-1.75-5-5.63-5-4.13,0-6.8,2.52-6.8,6.83V122H212.4Z" />
            <path class="cls-1" d="M35.08,54.29a87,87,0,0,1,80.53-54" />
            <path class="cls-1" d="M186.4,137.83a87,87,0,0,1-157-38.58H86.19V272.09" />
            <path
                d="M96.13,206.71h1.05l1.39,5h0l1.67-5h1l1.62,5h0l1.43-5h.94l-1.79,6h-1.19l-1.56-4.79h0l-1.6,4.79H97.91Z" />
            <path
                d="M105.93,209.73a3,3,0,1,1,3,3.09A2.88,2.88,0,0,1,105.93,209.73Zm5.11,0a2.07,2.07,0,1,0-2.07,2.21A2,2,0,0,0,111,209.73Z" />
            <path
                d="M113.47,206.71h1l0,1.74h0a2.15,2.15,0,0,1,2.19-1.84c1.35,0,2.07.9,2.07,2.35,0,.41,0,.85-.06,1.07h-.89a7.61,7.61,0,0,0,.05-.86c0-1.11-.42-1.68-1.4-1.68-1.23,0-2,1.07-2,2.57v2.66h-1Z" />
            <path d="M120.21,204.29h1v5.78h0l3.77-3.36h1.36l-3,2.62,3.21,3.39h-1.38L122.55,210l-1.37,1.19v1.58h-1Z" />
            <path
                d="M96.44,227.76c0-.85.6-1.58,2.2-1.58h2.45v-.44c0-1-.61-1.53-1.84-1.53s-1.71.41-1.71,1.23a2.13,2.13,0,0,0,0,.22h-.9c0-.09,0-.26,0-.37,0-1.19,1-1.91,2.66-1.91s2.78.88,2.78,2.45v3.66h-1c0-.28,0-.84,0-1.42h0c-.2.92-1,1.52-2.45,1.52S96.44,228.89,96.44,227.76Zm4.65-.79v-.08H98.73c-1,0-1.37.29-1.37.87s.55,1,1.5,1C100.23,228.76,101.09,228.07,101.09,227Z" />
            <path
                d="M104.7,228.1h0c0,.48,0,1.07,0,1.39h-1v-8.43h1v2.88c0,.25,0,.73,0,1h0a2.29,2.29,0,0,1,2.43-1.58,2.69,2.69,0,0,1,2.78,3c0,2-1.08,3.21-2.76,3.21A2.31,2.31,0,0,1,104.7,228.1Zm4.27-1.7a1.92,1.92,0,0,0-2-2.14,2.09,2.09,0,0,0-2.24,2.24v.31c0,1.16.86,1.9,2.2,1.9A2,2,0,0,0,109,226.4Z" />
            <path
                d="M111.16,226.5a3,3,0,1,1,3,3.09A2.88,2.88,0,0,1,111.16,226.5Zm5.11,0a2.08,2.08,0,1,0-4.14,0,2.07,2.07,0,1,0,4.14,0Z" />
            <path
                d="M118.64,227.19v-3.71h1V227a1.63,1.63,0,0,0,1.83,1.69,2.24,2.24,0,0,0,2.29-2.52v-2.71h1v6h-1c0-.4,0-1.16,0-1.76h0a2.38,2.38,0,0,1-2.6,1.86A2.29,2.29,0,0,1,118.64,227.19Z" />
            <path
                d="M126.71,227.29v-3h-1v-.85h.8c.19,0,.27-.1.29-.41l0-.95h.83v1.36h2.17v.85h-2.17v2.9c0,.91.29,1.46,1.19,1.46a3.34,3.34,0,0,0,.94-.13v.83a3.1,3.1,0,0,1-1,.15C127.33,229.54,126.71,228.61,126.71,227.29Z" />
            <path
                d="M96.69,240.25h1l0,1.74h0a2.15,2.15,0,0,1,2.19-1.84c1.35,0,2.06.9,2.06,2.35a9.28,9.28,0,0,1-.06,1.07H101a8.35,8.35,0,0,0,0-.86c0-1.11-.41-1.68-1.4-1.68-1.22,0-1.94,1.07-1.94,2.56v2.67h-1Z" />
            <path
                d="M108.8,243.45h-4.71a2,2,0,0,0,2,2.08c1,0,1.7-.51,1.79-1.3h.9c-.06,1.3-1.12,2.12-2.7,2.12a2.82,2.82,0,0,1-3-3,2.86,2.86,0,0,1,3-3.15A2.56,2.56,0,0,1,108.8,243Zm-.9-.78a1.6,1.6,0,0,0-1.8-1.69,1.88,1.88,0,0,0-2,1.76h3.77Z" />
            <path
                d="M110,244.25h.9c0,.8.48,1.28,1.73,1.28s1.84-.38,1.84-1a.61.61,0,0,0-.38-.62,6.51,6.51,0,0,0-1.65-.29,4,4,0,0,1-1.95-.47A1.4,1.4,0,0,1,110,242c0-1.13,1-1.86,2.63-1.86,1.8,0,2.56.79,2.56,2.14h-.9c0-.9-.55-1.31-1.62-1.31s-1.7.37-1.7,1a.63.63,0,0,0,.39.68,7.49,7.49,0,0,0,1.68.28,4.46,4.46,0,0,1,1.81.42,1.29,1.29,0,0,1,.59,1.14c0,1.18-1,1.88-2.79,1.88C110.65,246.35,110,245.4,110,244.25Z" />
            <path
                d="M116.86,244v-3.71h1v3.54a1.63,1.63,0,0,0,1.82,1.69A2.24,2.24,0,0,0,122,243v-2.71h1v6h-1c0-.41.05-1.16.05-1.77h0a2.38,2.38,0,0,1-2.61,1.86A2.29,2.29,0,0,1,116.86,244Z" />
            <path
                d="M124.63,240.25h1l0,1.59h0a2.08,2.08,0,0,1,2.1-1.69,1.91,1.91,0,0,1,2.1,1.58h0a2,2,0,0,1,2.11-1.58,2.06,2.06,0,0,1,2.15,2.3v3.81h-1v-3.6c0-1-.49-1.63-1.45-1.63s-1.81.81-1.81,2.2v3h-1v-3.64a1.39,1.39,0,0,0-1.46-1.59c-1.11,0-1.81.82-1.81,2.25v3h-1Z" />
            <path
                d="M141.16,243.45h-4.7a2,2,0,0,0,2,2.08c1,0,1.71-.51,1.79-1.3h.9c-.06,1.3-1.12,2.12-2.7,2.12a2.82,2.82,0,0,1-3-3,2.86,2.86,0,0,1,3-3.15,2.56,2.56,0,0,1,2.72,2.85Zm-.9-.78a1.59,1.59,0,0,0-1.8-1.69,1.88,1.88,0,0,0-2,1.76h3.77Z" />
            <path
                d="M96.44,260a2.82,2.82,0,0,1,3-3.1,2.41,2.41,0,0,1,2.64,2.51h-.91a1.57,1.57,0,0,0-1.72-1.63,2,2,0,0,0-2,2.22c0,1.36.75,2.23,1.92,2.23a1.61,1.61,0,0,0,1.81-1.61h.9a2.45,2.45,0,0,1-2.74,2.48A2.79,2.79,0,0,1,96.44,260Z" />
            <path
                d="M103.33,260a3,3,0,1,1,3,3.09A2.87,2.87,0,0,1,103.33,260Zm5.1,0a2.07,2.07,0,1,0-2.06,2.22A2,2,0,0,0,108.43,260Z" />
            <path
                d="M110.87,257h1l0,1.61h0a2.46,2.46,0,0,1,2.6-1.71,2.26,2.26,0,0,1,2.52,2.35V263h-1v-3.55c0-1-.58-1.67-1.87-1.67a2.09,2.09,0,0,0-2.26,2.27V263h-1Z" />
            <path
                d="M118.59,257h1l0,1.61h0a2.46,2.46,0,0,1,2.6-1.71,2.26,2.26,0,0,1,2.52,2.35V263h-1v-3.55c0-1-.59-1.67-1.88-1.67a2.09,2.09,0,0,0-2.26,2.27V263h-1Z" />
            <path
                d="M131.75,260.22H127a2,2,0,0,0,2,2.08,1.6,1.6,0,0,0,1.79-1.31h.9c-.06,1.31-1.12,2.13-2.7,2.13a2.82,2.82,0,0,1-3-3.05,2.86,2.86,0,0,1,3-3.15,2.56,2.56,0,0,1,2.73,2.85Zm-.9-.78a1.6,1.6,0,0,0-1.8-1.69,1.88,1.88,0,0,0-2,1.76h3.77Z" />
            <path
                d="M133,260a2.82,2.82,0,0,1,2.95-3.1,2.41,2.41,0,0,1,2.64,2.51h-.9a1.58,1.58,0,0,0-1.73-1.63,2,2,0,0,0-2,2.22c0,1.36.75,2.23,1.92,2.23a1.61,1.61,0,0,0,1.81-1.61h.9a2.45,2.45,0,0,1-2.74,2.48A2.79,2.79,0,0,1,133,260Z" />
            <path
                d="M140.23,260.82v-2.95h-1V257h.8c.2,0,.27-.1.29-.42l.05-1h.83V257h2.18v.85H141.2v2.89c0,.92.29,1.46,1.19,1.46a3.44,3.44,0,0,0,.94-.12v.83a3.14,3.14,0,0,1-1,.14C140.85,263.07,140.23,262.15,140.23,260.82Z" />
        </g>
    </g>
</svg>