<?xml version="1.0" encoding="UTF-8"?><svg xmlns="http://www.w3.org/2000/svg" viewBox="0 0 197.35 190.56"><defs><style>.d{fill:#5b9648;}</style></defs><g id="a"/><g id="b"><g id="c"><g><g><path class="d" d="M36.57,190.46c-.1-.04-.2-.09-.29-.16-.49-.36-2.13-1.91-1.79-2.28,.08-.09,8.38-8.97,19.77-25.9,6.69-9.94,10.76-16.33,16.75-27.55,7.49-14.02,18.51-33.1,22.62-48.43,.13-.48,.79-.65,1.36-.42h.01c.56,.23,.87,.79,.69,1.24-5.99,15.29-17.54,38.36-25.26,52.33-6.18,11.19-11.96,18.77-18.68,28.76-11.45,17.01-13.89,22.13-13.98,22.22-.28,.3-.78,.36-1.22,.18Z"/><g><path class="d" d="M69.8,162.34l-16.37,2.92h-.95l.62,.53,7.85,4.02c5.6,2.86,12.12,3.32,18.06,1.27l13.95-4.82-17.55-3.81c-1.84-.4-3.75-.44-5.6-.11Z"/><path class="d" d="M23.93,150.08l7.69,8.59c3.7,4.13,8.97,6.51,14.52,6.54l6.35,.04-9.56-8.27c-2.34-2.02-5.12-3.46-8.11-4.21l-10.88-2.7Z"/><path class="d" d="M62.93,152.35l6.83,1.77c6.42,1.66,13.25,.48,18.74-3.25l14.47-9.82-16.96-.68c-3.02-.12-6.01,.71-8.54,2.38l-14.55,9.6Z"/><path class="d" d="M39.08,127.26l1.3,6.42c1.31,6.43,5.74,11.79,11.81,14.27l10.19,4.17-2.69-8.16c-1.65-5.01-5.25-9.14-9.98-11.47l-10.64-5.23Z"/><path class="d" d="M73.09,134.15l7.62,1.5c6.52,1.28,13.28,.48,19.31-2.31l8.37-3.86-8.74-2.21c-5.62-1.42-11.55-.75-16.71,1.88l-9.83,5.01Z"/><path class="d" d="M72.52,133.91l-5.94-11.37c-1.92-3.68-4.96-6.66-8.69-8.51l-12-5.95,5.3,11.21c2.02,4.28,5.52,7.68,9.85,9.58l11.46,5.04Z"/><path class="d" d="M81.58,117.33l11.31-.5c4.47-.2,8.78-1.69,12.42-4.29l7.06-5.05-12.22-.02c-2.99,0-5.9,.92-8.35,2.64l-10.23,7.21Z"/><path class="d" d="M80.62,116.93l-3.35-8.05c-1.72-4.12-4.79-7.54-8.7-9.68l-10.12-5.54,5.84,12.02c2.61,5.37,7.52,9.26,13.35,10.57l2.98,.67Z"/><path class="d" d="M88.91,100.86l6.67-.61c4.7-.43,9.15-2.29,12.76-5.32l5.44-4.57-12.42,2.26c-2.61,.47-5.03,1.66-7.01,3.42l-5.43,4.83Z"/><path class="d" d="M88.35,100.63l-2.16-7.19c-1.18-3.91-3.55-7.36-6.78-9.87l-6.04-4.68,.81,5.36c.96,6.33,4.94,11.79,10.67,14.64l3.49,1.74Z"/><path class="d" d="M112.1,78.85l-4.5,.18c-3.16,.13-6.25,1.33-8.79,3.42l-5.07,4.18,3.9-.46c4.5-.54,8.81-2.46,12.38-5.52l2.09-1.8Z"/><path class="d" d="M95.26,87.03h0c-.98-5.16-4-9.72-8.36-12.64l-3.78-2.53,2.55,5.46c1.62,3.46,4.21,6.38,7.46,8.39l2.14,1.32Z"/></g></g><path class="d" d="M35.69,87.93c-5.36,7.59-12.04,5.57-13.82,4.61-.17-.09-.38-.02-.46,.15h0c-.04,.1-.04,.2,0,.29l4.5,7.29c.08,.16,.02,.35-.14,.43l-4.37,2.26c-.22,.12-.49-.03-.5-.28-.03-.84-.06-2.6,.12-5.09,.11-1.46-.87-1.48-1.59-3.01-.11-.24-.45-.26-.59-.03-1.74,2.89-4.02,4.7-10.76,4.43-6.34-.25-8.85-3.28-7.88-9.61,2.11,.51,8.37,2.03,9.6,2.46,1.49,.51,7.46,.05,8-.85,.53-.9-.64-1.58-3.84-.92-2.65,.54-10.87-.91-13.63-1.42,.37-1.96,1.05-4.21,2.02-6.77,2.21,1.29,5.63,3.21,6.71,3.38,1.65,.27,6.18,1.22,6.49,.19s-3.45-1.24-4.18-1.45c-.72-.2-5.56-1.15-7.46-2.99-.33-.32-.65-.54-.96-.68,.54-1.33,1.16-2.74,1.84-4.22l.05-.11c2.03,1.43,7.63,5.23,9.09,4.67,1.79-.68-2.56-1.61-3.65-2.71-.8-.81-3.61-2.2-5.12-2.65,4.51-9.76,5.36-11.98,5.69-13.97,.05-.29,.41-.38,.59-.15,.91,1.18,2.86,2.37,5.02,3.56-.5,1.41-1.45,4.37-1.1,5.45,.46,1.44,1.28-.55,1.7-1.09,.29-.37,.8-2.29,1.09-3.45,1.29,.69,2.58,1.37,3.71,2.05,.39,.23,.87,.51,1.42,.85-1.41,2.16-4.55,7.01-4.85,7.96-.38,1.23,.21,1.68,.65,1.59,.37-.07,3.94-7.04,4.98-9.08,1.52,.93,3.4,2.15,5.26,3.58-1.94,2.1-7.94,8.56-9.19,9.54-1.5,1.17-1.12,2.46-.73,2.36,.39-.1,5.62-4.35,7.61-6.78,1.27-1.55,3.03-2.99,3.55-4.14,1.21,1,2.37,2.09,3.37,3.23-1.11,1.67-4.47,6.49-7.57,8.63-3.79,2.61-6.09,3.97-4.8,4.16,1.29,.19,7.33-4.61,9.44-6.61,1.59-1.5,2.82-4.19,3.26-5.62,2.82,3.32,4.09,6.78,1.43,10.56Z"/><path class="d" d="M47.38,48.68s-5.47-24.51,19.94-31.18C92.73,10.84,94.06,0,94.06,0c0,0,5.83,48.72-41.3,51.26-.92,1.12,6.38-18.61,19.55-24.51-13.26,2.19-24.94,21.93-24.94,21.93Z"/><path class="d" d="M134.25,53.53c3.33-2.64,6.92-9.29,8.94-17.02,2.18-8.36,.96-17.16,.96-17.16,0,0-17.18,3.04-19.31,34.91,6.92-14.68,12.15-23.55,14.97-25.47-2.21,3.06-14.59,25.08-13.19,28.6,.32,.69,3.81-.82,7.63-3.85Z"/><path class="d" d="M105.24,173.44c-2.65-2.09-3.73-5.6-2.83-8.85,1.14-4.1,4-9.93,11.19-13.36,11.93-5.69,13.32-16.33,13.32-16.33,0,0,14.92,28.49-15.8,39.91,10.57-12.32,11.2-16.78,11.8-20.13-1.89,3.27-11.6,19.63-15.38,19.8-.76-.01-1.56-.43-2.31-1.03Z"/><path class="d" d="M196.28,98.6c-5.6,12.91-16.14,11.96-19.07,11.09-.28-.08-.57,.08-.63,.36h0c-.04,.16,0,.32,.09,.44l8.92,9.42c.16,.21,.13,.51-.07,.68l-5.79,4.7c-.28,.25-.73,.11-.82-.26-.3-1.23-.89-3.84-1.39-7.59-.29-2.2-1.75-1.93-3.29-3.98-.24-.32-.75-.24-.88,.14-1.7,4.82-4.52,8.2-14.6,9.89-9.47,1.58-14.14-2.14-14.65-11.83,3.29,.11,13.04,.44,15,.69,2.36,.3,11.08-2.22,11.6-3.72,.51-1.5-1.44-2.15-5.98-.19-3.76,1.62-16.41,2-20.66,2.09-.06-3.02,.25-6.57,.91-10.67,3.68,1.23,9.33,3.02,10.99,2.95,2.53-.1,9.54-.1,9.69-1.72s-5.51-.78-6.64-.86c-1.13-.08-8.59,0-11.98-2.14-.59-.37-1.13-.6-1.63-.71,.39-2.14,.87-4.41,1.44-6.82,.01-.06,.03-.12,.04-.18,3.46,1.5,12.92,5.4,14.91,4.13,2.45-1.57-4.3-1.6-6.25-2.9-1.44-.96-6.04-2.14-8.41-2.35,3.69-15.86,4.26-19.42,4.14-22.47-.02-.44,.5-.69,.83-.4,1.72,1.47,4.97,2.64,8.53,3.74-.3,2.24-.81,6.92,.04,8.42,1.13,2,1.73-1.22,2.19-2.14,.31-.64,.48-3.65,.56-5.45,2.12,.62,4.24,1.24,6.13,1.89,.64,.22,1.45,.5,2.37,.82-1.43,3.63-4.59,11.8-4.74,13.3-.18,1.94,.83,2.42,1.45,2.16,.53-.22,3.68-11.65,4.59-15,2.54,.92,5.71,2.14,8.9,3.69-2.23,3.72-9.14,15.14-10.69,16.98-1.86,2.2-.91,3.99-.35,3.73,.55-.27,7-8.18,9.2-12.4,1.4-2.69,3.57-5.36,3.99-7.22,2.1,1.11,4.16,2.37,5.99,3.76-1.14,2.83-4.63,11-8.58,15.13-4.82,5.03-7.81,7.76-5.84,7.64,1.97-.11,9.45-9.09,11.97-12.71,1.89-2.71,2.9-7.08,3.1-9.34,5.21,4.06,8.15,8.79,5.37,15.22Z"/></g></g></g></svg>